<?xml version="1.0" encoding="UTF-8"?>
<svg width="256px" height="256px" viewBox="0 0 256 256" version="1.1" xmlns="http://www.w3.org/2000/svg" xmlns:xlink="http://www.w3.org/1999/xlink" preserveAspectRatio="xMidYMid">
    <g>
        <path d="M60.9408777,140.389916 L60.9408777,115.61749 L85.7132941,115.61749 L85.7132941,140.389916 L60.9408777,140.389916 Z M170.287596,140.389916 L170.287596,115.61749 L195.060012,115.61749 L195.060012,140.389916 L170.287596,140.389916 Z M195.059102,85.7133843 L195.059102,110.485811 L170.286686,110.485811 L170.286686,85.7133843 L195.059102,85.7133843 Z M60.9408777,85.7133843 L60.9408777,110.485811 L85.7132941,110.485811 L85.7132941,85.7133843 L60.9408777,85.7133843 Z M128,0 C57.3075408,0 0,57.3075408 0,128 C0,198.692459 57.3075408,256 128,256 C198.692459,256 256,198.692459 256,128 C256,57.3075408 198.692459,0 128,0 Z M200.191691,170.287596 L170.287596,170.287596 L170.287596,200.191691 L145.515179,200.191691 L145.515179,55.8082988 L110.485811,55.8082988 L110.485811,200.191691 L85.7133843,200.191691 L85.7133843,170.287596 L55.8082988,170.287596 L55.8082988,55.8082988 L90.8449777,55.8082988 L90.8449777,80.5807152 L165.155912,80.5807152 L165.155912,55.8082988 L200.191691,55.8082988 L200.191691,170.287596 Z" fill="#FF7A59"></path>
    </g>
</svg> 