<?xml version="1.0" standalone="no"?><!DOCTYPE svg PUBLIC "-//W3C//DTD SVG 1.1//EN" "http://www.w3.org/Graphics/SVG/1.1/DTD/svg11.dtd"><svg t="1733962526100" class="icon" viewBox="0 0 1024 1024" version="1.1" xmlns="http://www.w3.org/2000/svg" p-id="2444" xmlns:xlink="http://www.w3.org/1999/xlink" width="200" height="200"><path d="M774.917622 338.283715V216.885446a93.951704 93.951704 0 0 0 53.997438-84.323014v-2.879011a93.791759 93.791759 0 0 0-93.471869-93.535847h-2.87901a93.791759 93.791759 0 0 0-93.535847 93.471869v2.879011a93.631814 93.631814 0 0 0 52.845834 83.907157l0.543813 0.255912 0.543813 0.255912v121.654181a264.932929 264.932929 0 0 0-127.124301 56.268658l0.479835-0.383868 0.511824-0.383868L232.95992 134.065915A106.523383 106.523383 0 1 0 184.112711 198.395801l-0.511824 0.255912-0.511824 0.255913 328.239168 255.528162a261.030271 261.030271 0 0 0-44.272781 146.157758v0.863703-0.031989c0 57.292306 18.137765 110.394052 48.911186 153.80313l-0.543813-0.799725-99.901658 99.901659a82.499641 82.499641 0 0 0-24.695511-4.062604h-0.159945a86.722189 86.722189 0 1 0 86.722189 86.72219 84.738871 84.738871 0 0 0-4.382494-25.975071l0.159945 0.607791 0.159945 0.607791 98.814033-98.814033a264.485083 264.485083 0 0 0 161.704414 54.669208 266.436412 266.436412 0 0 0 43.792946-529.290057l-3.070944-0.415857z m-41.137859 399.926525a136.752991 136.752991 0 1 1 137.10487-136.752991v0.095967a136.752991 136.752991 0 0 1-136.752991 136.752991z" fill="#FF7A59" p-id="2445"></path></svg>