<svg width="40" height="40" viewBox="0 0 40 40" fill="none" xmlns="http://www.w3.org/2000/svg">
  <path d="M35 20C35 28.2843 28.2843 35 20 35C11.7157 35 5 28.2843 5 20C5 11.7157 11.7157 5 20 5C28.2843 5 35 11.7157 35 20Z" fill="#FF7A59"/>
  <path d="M23.75 16.25C22.7835 16.25 22 17.0335 22 18C22 18.9665 22.7835 19.75 23.75 19.75C24.7165 19.75 25.5 18.9665 25.5 18C25.5 17.0335 24.7165 16.25 23.75 16.25Z" fill="white"/>
  <path d="M16.25 16.25C15.2835 16.25 14.5 17.0335 14.5 18C14.5 18.9665 15.2835 19.75 16.25 19.75C17.2165 19.75 18 18.9665 18 18C18 17.0335 17.2165 16.25 16.25 16.25Z" fill="white"/>
  <path d="M20 23.75C17.9289 23.75 16.25 22.0711 16.25 20H14.5C14.5 23.0376 16.9624 25.5 20 25.5C23.0376 25.5 25.5 23.0376 25.5 20H23.75C23.75 22.0711 22.0711 23.75 20 23.75Z" fill="white"/>
</svg> 