<svg width="40" height="40" viewBox="0 0 40 40" fill="none" xmlns="http://www.w3.org/2000/svg">
  <path d="M35 20C35 28.2843 28.2843 35 20 35C11.7157 35 5 28.2843 5 20C5 11.7157 11.7157 5 20 5C28.2843 5 35 11.7157 35 20Z" fill="#0A66C2"/>
  <path d="M15 14C15 15.1046 14.1046 16 13 16C11.8954 16 11 15.1046 11 14C11 12.8954 11.8954 12 13 12C14.1046 12 15 12.8954 15 14Z" fill="white"/>
  <path d="M11 17H15V28H11V17Z" fill="white"/>
  <path d="M21.5 17H17.5V28H21.5V22.5C21.5 20.5 23.5 20.5 24.5 21.5V17C23.5 17 22 17 21.5 18.5V17Z" fill="white"/>
  <path d="M25.5 21.5V28H29.5V22C29.5 18.5 26 17.5 24.5 17V21.5H25.5Z" fill="white"/>
</svg> 