<?xml version="1.0" encoding="UTF-8"?>
<svg width="256px" height="180px" viewBox="0 0 256 180" version="1.1" xmlns="http://www.w3.org/2000/svg" xmlns:xlink="http://www.w3.org/1999/xlink" preserveAspectRatio="xMidYMid">
    <g>
        <path d="M145.306897,50.6038753 C138.398865,50.6038753 132.802124,56.2006161 132.802124,63.1086477 C132.802124,66.3010753 134.045462,69.1679385 136.062809,71.3377385 C131.405398,75.995177 128.669654,82.5103346 128.669654,89.7332431 C128.669654,104.174467 140.471918,115.976731 154.913142,115.976731 C169.354366,115.976731 181.15663,104.174467 181.15663,89.7332431 C181.15663,75.2920192 169.354366,63.4897554 154.913142,63.4897554 C154.722809,63.4897554 154.532477,63.4897554 154.342144,63.4897554 C152.705131,56.3909446 149.397704,50.6038753 145.306897,50.6038753 Z M154.913142,106.649395 C145.687563,106.649395 138.017731,98.9795631 138.017731,89.7332431 C138.017731,80.4869231 145.687563,72.8170915 154.913142,72.8170915 C164.138721,72.8170915 171.808554,80.4869231 171.808554,89.7332431 C171.808554,98.9795631 164.138721,106.649395 154.913142,106.649395 Z M154.913142,82.1292269 C150.831868,82.1292269 147.329865,85.6312308 147.329865,89.7332431 C147.329865,93.8352554 150.831868,97.3372592 154.913142,97.3372592 C158.994416,97.3372592 162.496419,93.8352554 162.496419,89.7332431 C162.496419,85.6312308 158.994416,82.1292269 154.913142,82.1292269 Z" fill="#00A1E0"></path>
        <path d="M108.069695,63.4897554 C107.879363,63.4897554 107.68903,63.4897554 107.498698,63.4897554 C105.861684,56.3909446 102.554257,50.6038753 98.4634501,50.6038753 C91.5554185,50.6038753 85.9586777,56.2006161 85.9586777,63.1086477 C85.9586777,66.3010753 87.2020154,69.1679385 89.2193623,71.3377385 C84.5619501,75.995177 81.8262062,82.5103346 81.8262062,89.7332431 C81.8262062,104.174467 93.6284701,115.976731 108.069695,115.976731 C122.510919,115.976731 134.313183,104.174467 134.313183,89.7332431 C134.313183,75.2920192 122.510919,63.4897554 108.069695,63.4897554 Z M108.069695,106.649395 C98.8441154,106.649395 91.1742831,98.9795631 91.1742831,89.7332431 C91.1742831,80.4869231 98.8441154,72.8170915 108.069695,72.8170915 C117.295274,72.8170915 124.965106,80.4869231 124.965106,89.7332431 C124.965106,98.9795631 117.295274,106.649395 108.069695,106.649395 Z M108.069695,82.1292269 C103.988421,82.1292269 100.486418,85.6312308 100.486418,89.7332431 C100.486418,93.8352554 103.988421,97.3372592 108.069695,97.3372592 C112.150969,97.3372592 115.652972,93.8352554 115.652972,89.7332431 C115.652972,85.6312308 112.150969,82.1292269 108.069695,82.1292269 Z" fill="#00A1E0"></path>
        <path d="M61.2262477,63.4897554 C61.0359154,63.4897554 60.8455831,63.4897554 60.6552508,63.4897554 C59.0182369,56.3909446 55.7108092,50.6038753 51.6200031,50.6038753 C44.7119715,50.6038753 39.1152308,56.2006161 39.1152308,63.1086477 C39.1152308,66.3010753 40.3585685,69.1679385 42.3759154,71.3377385 C37.7185031,75.995177 34.9827592,82.5103346 34.9827592,89.7332431 C34.9827592,104.174467 46.7850231,115.976731 61.2262477,115.976731 C75.6674715,115.976731 87.4697354,104.174467 87.4697354,89.7332431 C87.4697354,75.2920192 75.6674715,63.4897554 61.2262477,63.4897554 Z M61.2262477,106.649395 C52.0006685,106.649395 44.3308362,98.9795631 44.3308362,89.7332431 C44.3308362,80.4869231 52.0006685,72.8170915 61.2262477,72.8170915 C70.4518269,72.8170915 78.1216585,80.4869231 78.1216585,89.7332431 C78.1216585,98.9795631 70.4518269,106.649395 61.2262477,106.649395 Z M61.2262477,82.1292269 C57.1449738,82.1292269 53.6429708,85.6312308 53.6429708,89.7332431 C53.6429708,93.8352554 57.1449738,97.3372592 61.2262477,97.3372592 C65.3075215,97.3372592 68.8095246,93.8352554 68.8095246,89.7332431 C68.8095246,85.6312308 65.3075215,82.1292269 61.2262477,82.1292269 Z" fill="#00A1E0"></path>
        <path d="M201.756589,63.4897554 C201.566257,63.4897554 201.375924,63.4897554 201.185592,63.4897554 C199.548579,56.3909446 196.241152,50.6038753 192.150345,50.6038753 C185.242313,50.6038753 179.645572,56.2006161 179.645572,63.1086477 C179.645572,66.3010753 180.88891,69.1679385 182.906257,71.3377385 C178.248846,75.995177 175.513102,82.5103346 175.513102,89.7332431 C175.513102,104.174467 187.315366,115.976731 201.756589,115.976731 C216.197813,115.976731 228.000077,104.174467 228.000077,89.7332431 C228.000077,75.2920192 216.197813,63.4897554 201.756589,63.4897554 Z M201.756589,106.649395 C192.53101,106.649395 184.861179,98.9795631 184.861179,89.7332431 C184.861179,80.4869231 192.53101,72.8170915 201.756589,72.8170915 C210.982168,72.8170915 218.652001,80.4869231 218.652001,89.7332431 C218.652001,98.9795631 210.982168,106.649395 201.756589,106.649395 Z M201.756589,82.1292269 C197.675315,82.1292269 194.173312,85.6312308 194.173312,89.7332431 C194.173312,93.8352554 197.675315,97.3372592 201.756589,97.3372592 C205.837863,97.3372592 209.339866,93.8352554 209.339866,89.7332431 C209.339866,85.6312308 205.837863,82.1292269 201.756589,82.1292269 Z" fill="#00A1E0"></path>
        <path d="M128,0 C57.3075408,0 0,40.0955408 0,89.7332431 C0,139.370945 57.3075408,179.466486 128,179.466486 C198.692459,179.466486 256,139.370945 256,89.7332431 C256,40.0955408 198.692459,0 128,0 Z M128,170.129351 C62.4821538,170.129351 9.33713846,134.171574 9.33713846,89.7332431 C9.33713846,45.2949123 62.4821538,9.33713846 128,9.33713846 C193.517846,9.33713846 246.662862,45.2949123 246.662862,89.7332431 C246.662862,134.171574 193.517846,170.129351 128,170.129351 Z" fill="#00A1E0"></path>
    </g>
</svg> 