<svg width="40" height="40" viewBox="0 0 40 40" fill="none" xmlns="http://www.w3.org/2000/svg">
  <path d="M35 20C35 28.2843 28.2843 35 20 35C11.7157 35 5 28.2843 5 20C5 11.7157 11.7157 5 20 5C28.2843 5 35 11.7157 35 20Z" fill="#00A1E0"/>
  <path d="M20.9091 14.5455C19.8182 14.5455 18.8182 14.9091 18 15.5455C17.1818 14.9091 16.1818 14.5455 15.0909 14.5455C12.7273 14.5455 10.9091 16.3636 10.9091 18.7273C10.9091 21.0909 12.7273 22.9091 15.0909 22.9091C16.1818 22.9091 17.1818 22.5455 18 21.9091C18.8182 22.5455 19.8182 22.9091 20.9091 22.9091C23.2727 22.9091 25.0909 21.0909 25.0909 18.7273C25.0909 16.3636 23.2727 14.5455 20.9091 14.5455Z" fill="white"/>
  <path d="M29.0909 18.7273C29.0909 16.3636 27.2727 14.5455 24.9091 14.5455C23.8182 14.5455 22.8182 14.9091 22 15.5455C21.1818 14.9091 20.1818 14.5455 19.0909 14.5455C16.7273 14.5455 14.9091 16.3636 14.9091 18.7273C14.9091 21.0909 16.7273 22.9091 19.0909 22.9091C20.1818 22.9091 21.1818 22.5455 22 21.9091C22.8182 22.5455 23.8182 22.9091 24.9091 22.9091C27.2727 22.9091 29.0909 21.0909 29.0909 18.7273Z" fill="white"/>
</svg> 