<?xml version="1.0" standalone="no"?><!DOCTYPE svg PUBLIC "-//W3C//DTD SVG 1.1//EN" "http://www.w3.org/Graphics/SVG/1.1/DTD/svg11.dtd"><svg t="1733962404650" class="icon" viewBox="0 0 1458 1024" version="1.1" xmlns="http://www.w3.org/2000/svg" p-id="1449" xmlns:xlink="http://www.w3.org/1999/xlink" width="284.765625" height="200"><path d="M607.721739 116.313043c46.747826-48.417391 111.86087-79.026087 183.652174-79.026086 95.721739 0 178.643478 53.426087 223.165217 132.452173 38.4-17.252174 81.252174-26.713043 126.330435-26.713043 172.521739 0 311.652174 140.8 311.652174 314.434783s-139.686957 314.434783-311.652174 314.434782c-21.147826 0-41.73913-2.226087-61.217391-6.121739-38.956522 69.565217-113.530435 116.869565-199.234783 116.869565-35.617391 0-69.565217-8.347826-99.617391-22.817391-39.513043 92.93913-131.895652 158.608696-239.304348 158.608696-111.86087 0-207.582609-70.678261-244.313043-170.295653-16.13913 3.33913-32.834783 5.008696-49.530435 5.008696-133.565217 0-241.530435-109.078261-241.530435-244.313043 0-90.156522 48.417391-169.182609 120.765218-211.478261-15.026087-33.947826-23.373913-71.791304-23.373914-111.86087C102.956522 131.33913 229.286957 5.565217 384 5.565217c91.269565 0 172.521739 43.408696 223.721739 110.747826" fill="#00A1E0" p-id="1450"></path><path d="M215.373913 530.921739l6.121739-16.13913c1.113043-2.782609 2.782609-1.669565 3.895652-1.113044 1.669565 1.113043 2.782609 1.669565 5.008696 3.339131 17.252174 11.130435 33.391304 11.130435 38.4 11.130434 12.8 0 21.147826-6.678261 21.147826-16.13913v-0.556522c0-10.017391-12.243478-13.913043-26.713043-18.365217l-3.339131-1.113044c-19.478261-5.565217-40.626087-13.913043-40.626087-38.4v-0.556521c0-23.373913 18.921739-40.069565 46.191305-40.069566h2.782608c16.13913 0 31.165217 4.452174 42.295652 11.686957 1.113043 0.556522 2.226087 1.669565 1.669566 3.33913-0.556522 1.669565-5.565217 14.469565-6.121739 16.139131-1.113043 2.782609-3.895652 1.113043-3.895653 1.113043-10.017391-5.565217-25.043478-9.46087-37.843478-9.460869-11.686957 0-18.921739 6.121739-18.921739 14.469565v0.556522c0 9.46087 12.8 13.913043 27.269565 18.365217l2.782609 0.556522c19.478261 6.121739 40.069565 14.469565 40.069565 38.4v0.556522c0 25.6-18.365217 41.182609-47.860869 41.182608-14.469565 0-28.382609-2.226087-43.408696-10.017391-2.782609-1.669565-5.565217-2.782609-8.347826-5.008696-0.556522-1.113043-1.669565-1.669565-0.556522-3.895652z m434.086957 0l6.121739-16.13913c1.113043-2.782609 3.33913-1.669565 3.895652-1.113044 1.669565 1.113043 2.782609 1.669565 5.008696 3.339131 17.252174 11.130435 33.391304 11.130435 38.4 11.130434 12.8 0 21.147826-6.678261 21.147826-16.13913v-0.556522c0-10.017391-12.243478-13.913043-26.713044-18.365217l-3.33913-1.113044c-19.478261-5.565217-40.626087-13.913043-40.626087-38.4v-0.556521c0-23.373913 18.921739-40.069565 46.191304-40.069566h2.782609c16.13913 0 31.165217 4.452174 42.295652 11.686957 1.113043 0.556522 2.226087 1.669565 1.669565 3.33913-0.556522 1.669565-5.565217 14.469565-6.121739 16.139131-1.113043 2.782609-3.895652 1.113043-3.895652 1.113043-10.017391-5.565217-25.043478-9.46087-37.843478-9.460869-11.686957 0-18.921739 6.121739-18.92174 14.469565v0.556522c0 9.46087 12.8 13.913043 27.269566 18.365217l2.782608 0.556522c19.478261 6.121739 40.069565 14.469565 40.069566 38.4v0.556522c0 25.6-18.365217 41.182609-47.86087 41.182608-14.469565 0-28.382609-2.226087-43.408696-10.017391-2.782609-1.669565-5.565217-2.782609-8.347826-5.008696 0-1.113043-1.113043-1.669565-0.556521-3.895652z m321.669565-76.243478c2.226087 8.347826 3.895652 17.252174 3.895652 26.713043s-1.113043 18.365217-3.895652 26.713044c-2.226087 8.347826-6.121739 15.582609-11.130435 21.704348-5.008696 6.121739-11.686957 11.130435-18.921739 14.469565-7.791304 3.33913-16.695652 5.008696-26.713044 5.008696-10.017391 0-18.921739-1.669565-26.713043-5.008696-7.791304-3.33913-13.913043-8.347826-18.921739-14.469565-5.008696-6.121739-8.904348-13.356522-11.130435-21.704348-2.226087-8.347826-3.895652-17.252174-3.895652-26.713044 0-9.46087 1.113043-18.365217 3.895652-26.713043 2.226087-8.347826 6.121739-15.582609 11.130435-21.704348 5.008696-6.121739 11.686957-11.130435 18.921739-14.469565 7.791304-3.33913 16.695652-5.565217 26.713043-5.565218 10.017391 0 18.921739 1.669565 26.713044 5.565218 7.791304 3.33913 13.913043 8.347826 18.921739 14.469565 5.008696 6.121739 8.904348 13.356522 11.130435 21.704348z m-25.043478 26.156522c0-14.469565-2.782609-25.6-7.791305-33.391305-5.008696-7.791304-13.356522-11.686957-23.930435-11.686956-11.130435 0-18.921739 3.895652-23.930434 11.686956-5.008696 7.791304-7.791304 18.921739-7.791305 33.391305s2.782609 25.6 7.791305 33.947826c5.008696 7.791304 12.8 11.686957 23.930434 11.686956s18.921739-3.895652 23.930435-11.686956c5.565217-7.791304 7.791304-19.478261 7.791305-33.947826z m228.730434 41.73913l6.121739 16.695652c0.556522 2.226087-1.113043 2.782609-1.113043 2.782609-9.46087 3.895652-22.26087 6.121739-35.06087 6.121739-21.704348 0-37.843478-6.121739-48.973913-18.365217-11.130435-12.243478-16.695652-28.93913-16.695652-49.530435 0-9.46087 1.113043-18.365217 3.895652-26.713044 2.782609-8.347826 6.678261-15.582609 12.243479-21.704347 5.565217-6.121739 12.243478-11.130435 20.034782-14.469566 7.791304-3.33913 17.252174-5.565217 27.826087-5.565217 7.234783 0 13.356522 0.556522 18.365218 1.113043 5.565217 1.113043 13.356522 2.782609 16.695652 4.452174 0.556522 0 2.226087 1.113043 1.669565 2.782609-2.226087 6.678261-3.895652 11.130435-6.121739 16.695652-1.113043 2.782609-2.782609 1.669565-2.782609 1.669565-8.347826-2.782609-16.13913-3.895652-26.156522-3.895652-12.243478 0-21.704348 3.895652-27.269565 12.243479-6.121739 7.791304-9.46087 18.365217-9.460869 32.834782 0 15.582609 3.895652 26.713043 10.573913 33.947826 6.678261 7.234783 16.13913 10.573913 28.382608 10.573913 5.008696 0 9.46087-0.556522 13.356522-1.113043s7.791304-1.669565 11.686957-3.339131c-0.556522 1.113043 1.669565 0.556522 2.782608 2.782609z m126.330435-72.904348c5.565217 18.921739 2.782609 35.06087 2.226087 36.173913 0 2.226087-2.226087 2.226087-2.226087 2.226087h-84.034783c0.556522 12.8 3.33913 21.704348 10.017392 27.826087 6.121739 6.121739 15.582609 10.017391 28.93913 10.017391 20.034783 0 28.382609-3.895652 34.504348-6.121739 0 0 2.226087-0.556522 3.33913 1.669566l5.565218 15.582608c1.113043 2.782609 0 3.33913-0.556522 3.895652-5.008696 2.782609-17.808696 8.347826-42.295652 8.347827-11.686957 0-22.26087-1.669565-30.608696-5.008696-8.347826-3.33913-15.582609-7.791304-21.147826-13.913044s-9.46087-13.356522-12.243478-21.147826c-2.782609-8.347826-3.895652-17.252174-3.895652-26.713043 0-9.46087 1.113043-18.365217 3.895652-26.713044 2.226087-8.347826 6.121739-15.582609 11.130435-21.704347 5.008696-6.121739 11.686957-11.130435 19.478261-14.469566 7.791304-3.895652 17.252174-5.565217 27.826087-5.565217 8.904348 0 17.252174 1.669565 23.930434 5.008696 5.008696 2.226087 10.573913 6.121739 16.139131 12.243478 2.782609 2.226087 7.791304 10.573913 10.017391 18.365217z m-83.478261 17.808696h59.547826c-0.556522-7.791304-2.226087-14.469565-5.565217-20.034783-5.008696-7.791304-12.243478-12.243478-23.373913-12.243478s-18.921739 4.452174-23.930435 12.243478c-3.33913 5.008696-5.008696 11.686957-6.678261 20.034783z m-588.243478-17.808696c5.565217 18.921739 2.782609 35.06087 2.782609 36.173913 0 2.226087-2.226087 2.226087-2.226087 2.226087H545.947826c0.556522 12.8 3.33913 21.704348 10.017391 27.826087 6.121739 6.121739 15.582609 10.017391 28.939131 10.017391 20.034783 0 28.382609-3.895652 34.504348-6.121739 0 0 2.226087-0.556522 3.33913 1.669566l5.565217 15.582608c1.113043 2.782609 0 3.33913-0.556521 3.895652-5.008696 2.782609-17.808696 8.347826-42.295652 8.347827-11.686957 0-22.26087-1.669565-30.608696-5.008696-8.347826-3.33913-15.582609-7.791304-21.147826-13.913044s-9.46087-13.356522-12.243478-21.147826c-2.782609-8.347826-3.895652-17.252174-3.895653-26.713043 0-9.46087 1.113043-18.365217 3.895653-26.713044 2.226087-8.347826 6.121739-15.582609 11.130434-21.704347 5.008696-6.121739 11.686957-11.130435 19.478261-14.469566 7.791304-3.895652 17.252174-5.565217 27.826087-5.565217 8.904348 0 17.252174 1.669565 23.930435 5.008696 5.008696 2.226087 10.573913 6.121739 16.13913 12.243478 2.226087 2.226087 7.791304 10.573913 9.46087 18.365217z m-83.478261 17.808696h60.104348c-0.556522-7.791304-2.226087-14.469565-5.565217-20.034783-5.008696-7.791304-12.243478-12.243478-23.373914-12.243478s-18.921739 4.452174-23.930434 12.243478c-3.895652 5.008696-5.565217 11.686957-7.234783 20.034783z m-147.478261-4.452174s6.678261 0.556522 13.913044 1.669565v-3.33913c0-11.130435-2.226087-16.695652-6.678261-20.034783-4.452174-3.33913-11.686957-5.565217-20.591305-5.565217 0 0-20.591304 0-36.730434 8.347826-0.556522 0.556522-1.113043 0.556522-1.113044 0.556522s-2.226087 0.556522-2.782608-1.113044l-6.12174-16.13913c-1.113043-2.226087 0.556522-3.33913 0.556522-3.339131 7.791304-6.121739 25.6-9.46087 25.6-9.460869 6.121739-1.113043 16.13913-2.226087 22.26087-2.226087 16.695652 0 29.495652 3.895652 38.4 11.686956 8.904348 7.791304 13.356522 20.034783 13.356521 37.286957v76.8s0 2.226087-1.669565 2.782608c0 0-3.33913 1.113043-6.121739 1.669566-2.782609 0.556522-12.8 2.782609-21.147826 3.895652-8.347826 1.669565-16.695652 2.226087-25.6 2.226087-8.347826 0-15.582609-0.556522-22.26087-2.226087-6.678261-1.669565-12.243478-3.895652-17.252173-7.234783-4.452174-3.33913-8.347826-7.791304-11.130435-13.356522-2.782609-5.008696-3.895652-11.686957-3.895652-18.921739 0-7.234783 1.669565-13.913043 4.452173-19.478261s7.234783-10.017391 12.243479-13.913043c5.008696-3.895652 11.130435-6.121739 17.252174-8.347826 6.678261-1.669565 13.356522-2.782609 20.591304-2.782609 6.678261 0.556522 11.130435 0.556522 14.469565 0.556522z m-33.391304 58.991304s7.791304 6.121739 24.486956 5.008696c12.243478-0.556522 22.817391-2.782609 22.817392-2.782609v-38.4S401.808696 484.173913 389.565217 484.173913c-17.252174 0-24.486957 6.121739-24.486956 6.121739-5.008696 3.33913-7.234783 8.904348-7.234783 16.139131 0 4.452174 1.113043 8.347826 2.782609 11.130434 0.556522 1.113043 1.113043 2.226087 4.452174 4.452174z m709.565217-101.843478c-0.556522 2.226087-5.008696 13.913043-6.121739 17.808696-0.556522 1.669565-1.669565 2.226087-3.33913 2.226087 0 0-5.008696-1.113043-9.46087-1.113044-2.782609 0-7.234783 0.556522-11.130435 1.669565-3.895652 1.113043-7.234783 3.33913-10.573913 6.12174-3.33913 2.782609-5.565217 7.234783-7.234782 12.243478-1.669565 5.008696-2.782609 13.356522-2.782609 22.260869v62.330435c0 1.669565-1.113043 2.782609-2.782609 2.782609h-22.260869c-1.669565 0-2.782609-1.113043-2.782609-2.782609V418.504348c0-1.669565 1.113043-2.782609 2.226087-2.782609h21.704348c1.669565 0 2.226087 1.113043 2.226087 2.782609V428.521739c3.33913-4.452174 8.904348-8.347826 13.913043-10.573913 5.008696-2.226087 11.130435-3.895652 21.704348-3.33913 5.565217 0.556522 12.8 1.669565 13.913044 2.226087 2.226087 0.556522 3.33913 1.113043 2.782608 3.33913zM868.173913 362.295652c0.556522 0 2.226087 1.113043 1.669565 2.782609l-6.678261 17.808696c-0.556522 1.113043-1.113043 2.226087-3.895652 1.113043-0.556522 0-1.669565-0.556522-4.452174-1.113043-1.669565-0.556522-4.452174-0.556522-6.678261-0.556522-3.33913 0-6.121739 0.556522-8.904347 1.113043s-5.008696 2.226087-7.234783 4.452174a27.826087 27.826087 0 0 0-6.121739 8.904348c-3.33913 8.904348-4.452174 18.365217-4.452174 18.921739h26.713043c2.226087 0 2.782609 1.113043 2.782609 2.782609l-3.33913 17.252174c-0.556522 2.782609-2.782609 2.226087-2.782609 2.226087h-27.826087L799.165217 545.391304c-2.226087 11.130435-4.452174 20.591304-7.234782 28.382609-2.782609 7.791304-6.121739 13.356522-11.130435 18.921739-4.452174 5.008696-9.46087 8.904348-15.582609 10.573913-5.565217 2.226087-12.8 3.33913-20.591304 3.339131-3.895652 0-7.791304 0-12.243478-1.113044-3.33913-0.556522-5.008696-1.113043-7.791305-2.226087-1.113043-0.556522-1.669565-1.669565-1.113043-3.33913 0.556522-1.669565 5.565217-15.026087 6.121739-17.252174 1.113043-2.226087 2.782609-1.113043 2.782609-1.113044 1.669565 0.556522 2.782609 1.113043 4.452174 1.669566 2.226087 0.556522 4.452174 0.556522 6.67826 0.556521 3.895652 0 7.234783-0.556522 10.017392-1.669565 3.33913-1.113043 5.565217-3.33913 7.791304-6.121739 2.226087-2.782609 3.895652-6.678261 6.121739-11.686957 1.669565-5.008696 3.33913-12.243478 5.008696-20.591304l18.921739-105.182609h-18.365217c-2.226087 0-2.782609-1.113043-2.782609-2.782608l3.33913-17.252174c0.556522-2.782609 2.782609-2.226087 2.782609-2.226087h18.921739l1.113044-5.565218c2.782609-16.695652 8.347826-29.495652 16.695652-37.843478s20.591304-12.8 35.617391-12.8c4.452174 0 8.347826 0.556522 11.686957 1.113044 2.226087-0.556522 5.008696 0 7.791304 1.113043zM493.078261 543.165217c0 1.669565-1.113043 2.782609-2.226087 2.782609h-22.26087c-1.669565 0-2.226087-1.113043-2.226087-2.782609V364.521739c0-1.113043 1.113043-2.782609 2.226087-2.782609h22.26087c1.669565 0 2.226087 1.113043 2.226087 2.782609v178.643478z" fill="#FFFFFF" p-id="1451"></path></svg>