<svg width="40" height="40" viewBox="0 0 40 40" fill="none" xmlns="http://www.w3.org/2000/svg">
  <path d="M8.25 24.25C6.45507 24.25 5 25.7051 5 27.5C5 29.2949 6.45507 30.75 8.25 30.75C10.0449 30.75 11.5 29.2949 11.5 27.5V24.25H8.25Z" fill="#E01E5A"/>
  <path d="M8.25 8.25C6.45507 8.25 5 9.70507 5 11.5C5 13.2949 6.45507 14.75 8.25 14.75H14.75V11.5C14.75 9.70507 13.2949 8.25 11.5 8.25H8.25Z" fill="#E01E5A"/>
  <path d="M24.25 27.5C24.25 29.2949 25.7051 30.75 27.5 30.75C29.2949 30.75 30.75 29.2949 30.75 27.5V24.25H27.5C25.7051 24.25 24.25 25.7051 24.25 27.5Z" fill="#2EB67D"/>
  <path d="M14.75 27.5C14.75 29.2949 13.2949 30.75 11.5 30.75C9.70507 30.75 8.25 29.2949 8.25 27.5C8.25 25.7051 9.70507 24.25 11.5 24.25H14.75V27.5Z" fill="#ECB22E"/>
  <path d="M30.75 11.5C30.75 9.70507 29.2949 8.25 27.5 8.25C25.7051 8.25 24.25 9.70507 24.25 11.5V14.75H27.5C29.2949 14.75 30.75 13.2949 30.75 11.5Z" fill="#2EB67D"/>
  <path d="M24.25 11.5C24.25 9.70507 25.7051 8.25 27.5 8.25C29.2949 8.25 30.75 9.70507 30.75 11.5C30.75 13.2949 29.2949 14.75 27.5 14.75H24.25V11.5Z" fill="#ECB22E"/>
</svg> 