<?xml version="1.0" encoding="UTF-8"?>
<svg width="256px" height="256px" viewBox="0 0 256 256" version="1.1" xmlns="http://www.w3.org/2000/svg" xmlns:xlink="http://www.w3.org/1999/xlink" preserveAspectRatio="xMidYMid">
    <g>
        <path d="M159.999785,127.999888 L255.999568,127.999888 L255.999568,223.999671 L159.999785,223.999671 L159.999785,127.999888 Z M95.9998701,127.999888 L95.9998701,223.999671 L-0.000111737089,223.999671 L-0.000111737089,127.999888 L95.9998701,127.999888 Z M159.999785,31.9999179 L255.999568,31.9999179 L255.999568,95.9997015 L159.999785,95.9997015 L159.999785,31.9999179 Z M127.999673,63.9998358 L127.999673,159.999619 L31.9998903,159.999619 L31.9998903,63.9998358 L127.999673,63.9998358 Z M223.99965,0 L223.99965,0 L127.999673,0 L127.999673,31.9999179 L223.99965,31.9999179 L223.99965,0 Z M95.9998701,0 L95.9998701,31.9999179 L-0.000111737089,31.9999179 L-0.000111737089,0 L95.9998701,0 Z M255.999568,255.999784 L159.999785,255.999784 L159.999785,223.999671 L255.999568,223.999671 L255.999568,255.999784 Z M95.9998701,255.999784 L-0.000111737089,255.999784 L-0.000111737089,223.999671 L95.9998701,223.999671 L95.9998701,255.999784 Z" fill="#FF4A00"></path>
    </g>
</svg> 