<?xml version="1.0" standalone="no"?><!DOCTYPE svg PUBLIC "-//W3C//DTD SVG 1.1//EN" "http://www.w3.org/Graphics/SVG/1.1/DTD/svg11.dtd"><svg t="1733962572605" class="icon" viewBox="0 0 1024 1024" version="1.1" xmlns="http://www.w3.org/2000/svg" p-id="6296" xmlns:xlink="http://www.w3.org/1999/xlink" width="200" height="200"><path d="M639.966498 512.158009a306.875981 306.875981 0 0 1-19.680153 108.159338 306.028931 306.028931 0 0 1-108.156337 19.680153h-0.384023a306.699971 306.699971 0 0 1-108.127335-19.680153 306.424955 306.424955 0 0 1-19.680154-108.159338v-0.384022a305.983929 305.983929 0 0 1 19.680154-108.127336 306.117937 306.117937 0 0 1 108.127335-19.680153h0.384023a305.071875 305.071875 0 0 1 108.156337 19.712155 305.896924 305.896924 0 0 1 19.680153 108.159338z m376.958087-85.50501H718.042073l211.107369-211.29338a504.66657 504.66657 0 0 0-55.263238-65.403833 515.07818 515.07818 0 0 0-65.280825-55.30024L597.246995 305.817919V7.040413A535.364369 535.364369 0 0 0 512.130008 0h-0.416025a535.988406 535.988406 0 0 0-85.119987 7.040413V305.917925L215.392621 94.751552a501.950411 501.950411 0 0 0-65.439835 55.203234 511.010942 511.010942 0 0 0-55.29624 65.403833l211.167373 211.29538H7.041413s-7.041413 56.160291-7.041413 85.119988v0.384022a535.364369 535.364369 0 0 0 7.040413 85.119988h298.877512L94.752552 808.572377a511.30896 511.30896 0 0 0 120.607067 120.736075l211.29538-211.199375V1016.959587a530.880106 530.880106 0 0 0 84.959978 7.040413h0.736044a530.26407 530.26407 0 0 0 84.959978-7.040413V718.109077l211.29438 211.199375a441.255855 441.255855 0 0 0 65.245823-55.040225h0.224013a471.105604 471.105604 0 0 0 55.29624-65.311827L718.174081 597.790027h298.84651a524.593738 524.593738 0 0 0 7.039413-84.47995v-1.312077a529.464023 529.464023 0 0 0-7.040413-84.895974z" fill="#FF4A00" p-id="6297"></path></svg>