<?xml version="1.0" encoding="UTF-8"?>
<svg width="256px" height="153px" viewBox="0 0 256 153" version="1.1" xmlns="http://www.w3.org/2000/svg" xmlns:xlink="http://www.w3.org/1999/xlink" preserveAspectRatio="xMidYMid">
    <g>
        <path d="M72.392,55.438 C72.392,57.124 72.583,58.517 72.901,59.543 C73.265,60.569 73.755,61.64 74.405,62.804 C74.724,63.214 74.861,63.669 74.861,64.079 C74.861,64.671 74.451,65.263 73.574,65.855 L70.455,67.86 C69.897,68.224 69.339,68.406 68.872,68.406 C68.222,68.406 67.572,68.087 66.831,67.405 C66.136,66.723 65.532,65.9 64.928,65.035 C64.37,64.125 63.857,63.123 63.266,61.892 C59.872,65.809 55.558,67.769 50.326,67.769 C46.747,67.769 43.901,66.768 41.799,64.761 C39.697,62.758 38.615,60.021 38.615,56.555 C38.615,52.907 40.028,49.987 42.855,47.799 C45.682,45.611 49.547,44.516 54.495,44.516 C56.141,44.516 57.878,44.653 59.735,44.88 C61.592,45.111 63.494,45.476 65.487,45.886 L65.487,42.739 C65.487,39.865 64.837,37.813 63.584,36.583 C62.285,35.352 59.963,34.782 56.645,34.782 C55.045,34.782 53.399,34.965 51.662,35.375 C49.924,35.785 48.233,36.286 46.565,36.878 C45.727,37.196 45.116,37.424 44.785,37.561 C44.466,37.697 44.238,37.743 44.056,37.743 C43.314,37.743 42.947,37.196 42.947,36.013 L42.947,33.824 C42.947,32.958 43.085,32.32 43.45,31.956 C43.814,31.591 44.421,31.227 45.297,30.863 C47.011,30.089 49.059,29.451 51.479,28.904 C53.891,28.311 56.461,28.037 59.185,28.037 C64.837,28.037 69.02,29.268 71.713,31.728 C74.36,34.19 75.693,37.834 75.693,42.648 L75.693,55.438 L72.392,55.438 L72.392,55.438 Z M51.845,61.205 C53.445,61.205 55.137,60.886 56.966,60.203 C58.794,59.52 60.378,58.403 61.729,56.874 C62.561,55.893 63.165,54.798 63.494,53.613 C63.812,52.428 64.004,50.97 64.004,49.283 L64.004,47.548 C62.514,47.229 60.93,46.956 59.277,46.773 C57.633,46.591 56.004,46.5 54.404,46.5 C51.205,46.5 48.881,47.093 47.373,48.324 C45.864,49.556 45.116,51.286 45.116,53.522 C45.116,55.62 45.727,57.214 47.011,58.266 C48.233,59.559 49.834,60.203 51.845,61.205 L51.845,61.205 Z M95.197,66.723 C94.181,66.723 93.485,66.495 93.03,66.085 C92.574,65.72 92.163,64.944 91.799,63.805 L81.739,30.499 C81.375,29.314 81.193,28.539 81.193,28.175 C81.193,27.218 81.694,26.717 82.755,26.717 L86.328,26.717 C87.4,26.717 88.141,26.945 88.551,27.355 C89.007,27.719 89.372,28.494 89.736,29.634 L96.878,58.721 L103.566,29.634 C103.884,28.448 104.25,27.719 104.751,27.355 C105.252,26.945 106.039,26.717 107.066,26.717 L109.897,26.717 C111.015,26.717 111.802,26.945 112.257,27.355 C112.713,27.719 113.124,28.494 113.397,29.634 L120.176,59.085 L127.547,29.634 C127.911,28.448 128.322,27.719 128.732,27.355 C129.188,26.945 129.929,26.717 131.001,26.717 L134.393,26.717 C135.454,26.717 135.955,27.173 135.955,28.175 C135.955,28.448 135.91,28.767 135.773,29.131 C135.637,29.542 135.5,30.044 135.272,30.681 L124.94,63.987 C124.576,65.172 124.166,65.947 123.71,66.312 C123.254,66.677 122.513,66.905 121.497,66.905 L118.483,66.905 C117.365,66.905 116.578,66.677 116.122,66.312 C115.667,65.947 115.256,65.172 114.983,63.987 L108.387,35.648 L101.882,63.896 C101.518,65.081 101.107,65.856 100.651,66.221 C100.196,66.586 99.363,66.814 98.29,66.814 L95.197,66.814 L95.197,66.723 Z M154.39,68.406 C152.15,68.406 149.865,68.133 147.626,67.587 C145.387,67.041 143.559,66.403 142.225,65.72 C141.349,65.263 140.748,64.761 140.52,64.306 C140.293,63.851 140.156,63.305 140.156,62.804 L140.156,60.569 C140.156,59.384 140.566,58.837 141.349,58.837 C141.623,58.837 141.896,58.883 142.17,58.974 C142.443,59.111 142.899,59.338 143.445,59.566 C145.069,60.249 146.807,60.795 148.636,61.16 C150.51,61.524 152.333,61.706 154.207,61.706 C157.223,61.706 159.553,61.16 161.136,60.021 C162.691,58.883 163.523,57.26 163.523,55.209 C163.523,53.841 163.113,52.701 162.292,51.789 C161.471,50.878 159.963,50.057 157.815,49.329 L151.127,47.32 C147.717,46.181 145.205,44.516 143.65,42.284 C142.079,40.142 141.303,37.788 141.303,35.329 C141.303,33.277 141.759,31.455 142.671,29.86 C143.582,28.266 144.777,26.899 146.239,25.805 C147.717,24.665 149.41,23.799 151.354,23.252 C153.302,22.706 155.341,22.433 157.496,22.433 C158.693,22.433 159.917,22.524 161.136,22.706 C162.383,22.888 163.569,23.115 164.721,23.389 C165.826,23.662 166.886,23.98 167.901,24.299 C168.916,24.619 169.703,24.938 170.249,25.256 C170.932,25.667 171.433,26.077 171.706,26.535 C171.979,26.945 172.116,27.492 172.116,28.175 L172.116,30.226 C172.116,31.409 171.706,31.956 170.932,31.956 C170.567,31.956 169.93,31.728 169.02,31.273 C166.193,29.997 163.069,29.359 159.599,29.359 C156.81,29.359 154.618,29.814 153.12,30.772 C151.628,31.728 150.874,33.186 150.874,35.192 C150.874,36.56 151.331,37.697 152.242,38.609 C153.154,39.52 154.801,40.387 157.223,41.161 L163.774,43.17 C167.184,44.309 169.612,45.886 171.022,47.891 C172.39,49.897 173.086,52.177 173.086,54.662 C173.086,56.805 172.619,58.721 171.706,60.386 C170.794,62.071 169.566,63.487 168.042,64.671 C166.472,65.901 164.676,66.814 162.565,67.451 C160.326,68.042 157.45,68.406 154.39,68.406 L154.39,68.406 Z M182.692,66.723 C181.631,66.723 180.947,66.449 180.583,65.901 C180.219,65.354 180.037,64.534 180.037,63.441 L180.037,28.175 C180.037,27.037 180.219,26.262 180.583,25.805 C180.947,25.349 181.631,25.121 182.692,25.121 L186.037,25.121 C187.144,25.121 187.874,25.349 188.238,25.805 C188.602,26.262 188.784,27.037 188.784,28.175 L188.784,63.441 C188.784,64.534 188.602,65.354 188.238,65.901 C187.874,66.449 187.144,66.723 186.037,66.723 L182.692,66.723 L182.692,66.723 Z M211.483,68.406 C209.243,68.406 206.958,68.133 204.719,67.587 C202.48,67.041 200.652,66.403 199.318,65.72 C198.442,65.263 197.841,64.761 197.613,64.306 C197.386,63.851 197.249,63.305 197.249,62.804 L197.249,60.569 C197.249,59.384 197.659,58.837 198.442,58.837 C198.716,58.837 198.989,58.883 199.263,58.974 C199.536,59.111 199.992,59.338 200.538,59.566 C202.162,60.249 203.9,60.795 205.729,61.16 C207.603,61.524 209.426,61.706 211.3,61.706 C214.316,61.706 216.646,61.16 218.229,60.021 C219.784,58.883 220.616,57.26 220.616,55.209 C220.616,53.841 220.206,52.701 219.385,51.789 C218.564,50.878 217.056,50.057 214.908,49.329 L208.22,47.32 C204.81,46.181 202.298,44.516 200.743,42.284 C199.172,40.142 198.396,37.788 198.396,35.329 C198.396,33.277 198.852,31.455 199.764,29.86 C200.675,28.266 201.87,26.899 203.332,25.805 C204.81,24.665 206.503,23.799 208.447,23.252 C210.395,22.706 212.434,22.433 214.589,22.433 C215.786,22.433 217.01,22.524 218.229,22.706 C219.476,22.888 220.662,23.115 221.814,23.389 C222.919,23.662 223.979,23.98 224.994,24.299 C226.009,24.619 226.796,24.938 227.342,25.256 C228.025,25.667 228.526,26.077 228.799,26.535 C229.072,26.945 229.209,27.492 229.209,28.175 L229.209,30.226 C229.209,31.409 228.799,31.956 228.025,31.956 C227.66,31.956 227.023,31.728 226.113,31.273 C223.286,29.997 220.162,29.359 216.692,29.359 C213.903,29.359 211.711,29.814 210.213,30.772 C208.721,31.728 207.967,33.186 207.967,35.192 C207.967,36.56 208.424,37.697 209.335,38.609 C210.247,39.52 211.894,40.387 214.316,41.161 L220.867,43.17 C224.277,44.309 226.705,45.886 228.115,47.891 C229.483,49.897 230.179,52.177 230.179,54.662 C230.179,56.805 229.712,58.721 228.799,60.386 C227.887,62.071 226.659,63.487 225.135,64.671 C223.565,65.901 221.769,66.814 219.658,67.451 C217.419,68.042 214.543,68.406 211.483,68.406 L211.483,68.406 Z" fill="#252F3E"></path>
        <path d="M221.632,122.474 C197.704,140.927 163.25,151.033 133.642,151.033 C91.292,151.033 53.078,135.457 24.425,108.127 C22.347,106.169 24.197,103.574 26.686,105.121 C57.932,124.166 95.69,135.548 134.63,135.548 C160.743,135.548 189.396,130.519 215.874,120.139 C219.511,118.592 222.62,122.474 221.632,122.474" fill="#FF9900"></path>
        <path d="M231.828,110.893 C228.993,107.307 209.078,109.538 200.014,110.529 C197.98,110.802 197.661,109.037 199.467,107.717 C215.952,96.338 243.618,99.387 246.089,102.336 C248.561,105.35 245.361,130.519 229.786,143.113 C227.98,144.66 226.307,143.841 227.114,141.883 C230.213,134.648 234.664,114.479 231.828,110.893" fill="#FF9900"></path>
    </g>
</svg> 