<svg width="32" height="32" viewBox="0 0 32 32" fill="none" xmlns="http://www.w3.org/2000/svg">
  <path d="M15.7 18.8L13.5 17.8C13.3 17.7 13.2 17.5 13.2 17.3V15.3C13.2 15.1 13.3 14.9 13.5 14.8L15.7 13.8C15.9 13.7 16.1 13.7 16.3 13.8L18.5 14.8C18.7 14.9 18.8 15.1 18.8 15.3V17.3C18.8 17.5 18.7 17.7 18.5 17.8L16.3 18.8C16.2 18.9 16 18.9 15.7 18.8Z" fill="#FF9900"/>
  <path d="M9.7 22.8L7.5 21.8C7.3 21.7 7.2 21.5 7.2 21.3V19.3C7.2 19.1 7.3 18.9 7.5 18.8L9.7 17.8C9.9 17.7 10.1 17.7 10.3 17.8L12.5 18.8C12.7 18.9 12.8 19.1 12.8 19.3V21.3C12.8 21.5 12.7 21.7 12.5 21.8L10.3 22.8C10.2 22.9 10 22.9 9.7 22.8Z" fill="#FF9900"/>
  <path d="M21.7 22.8L19.5 21.8C19.3 21.7 19.2 21.5 19.2 21.3V19.3C19.2 19.1 19.3 18.9 19.5 18.8L21.7 17.8C21.9 17.7 22.1 17.7 22.3 17.8L24.5 18.8C24.7 18.9 24.8 19.1 24.8 19.3V21.3C24.8 21.5 24.7 21.7 24.5 21.8L22.3 22.8C22.2 22.9 22 22.9 21.7 22.8Z" fill="#FF9900"/>
  <path d="M15.7 26.8L13.5 25.8C13.3 25.7 13.2 25.5 13.2 25.3V23.3C13.2 23.1 13.3 22.9 13.5 22.8L15.7 21.8C15.9 21.7 16.1 21.7 16.3 21.8L18.5 22.8C18.7 22.9 18.8 23.1 18.8 23.3V25.3C18.8 25.5 18.7 25.7 18.5 25.8L16.3 26.8C16.2 26.9 16 26.9 15.7 26.8Z" fill="#FF9900"/>
  <path d="M15.7 10.8L13.5 9.8C13.3 9.7 13.2 9.5 13.2 9.3V7.3C13.2 7.1 13.3 6.9 13.5 6.8L15.7 5.8C15.9 5.7 16.1 5.7 16.3 5.8L18.5 6.8C18.7 6.9 18.8 7.1 18.8 7.3V9.3C18.8 9.5 18.7 9.7 18.5 9.8L16.3 10.8C16.2 10.9 16 10.9 15.7 10.8Z" fill="#FF9900"/>
  <path d="M9.7 14.8L7.5 13.8C7.3 13.7 7.2 13.5 7.2 13.3V11.3C7.2 11.1 7.3 10.9 7.5 10.8L9.7 9.8C9.9 9.7 10.1 9.7 10.3 9.8L12.5 10.8C12.7 10.9 12.8 11.1 12.8 11.3V13.3C12.8 13.5 12.7 13.7 12.5 13.8L10.3 14.8C10.2 14.9 10 14.9 9.7 14.8Z" fill="#FF9900"/>
  <path d="M21.7 14.8L19.5 13.8C19.3 13.7 19.2 13.5 19.2 13.3V11.3C19.2 11.1 19.3 10.9 19.5 10.8L21.7 9.8C21.9 9.7 22.1 9.7 22.3 9.8L24.5 10.8C24.7 10.9 24.8 11.1 24.8 11.3V13.3C24.8 13.5 24.7 13.7 24.5 13.8L22.3 14.8C22.2 14.9 22 14.9 21.7 14.8Z" fill="#FF9900"/>
</svg> 