<svg width="32" height="32" viewBox="0 0 32 32" fill="none" xmlns="http://www.w3.org/2000/svg">
  <path d="M16 30C15.5 30 15 29.8 14.6 29.5L11.2 27.5C10.6 27.2 10.8 27.1 11 27C11.8 26.7 11.9 26.7 12.7 26.2C12.8 26.1 13 26.2 13.2 26.3L15.8 27.9C16 28 16.2 28 16.3 27.9L25.7 22.5C25.9 22.4 26 22.2 26 21.9V11.2C26 11 25.9 10.8 25.7 10.6L16.3 5.2C16.1 5.1 15.9 5.1 15.7 5.2L6.3 10.6C6.1 10.7 6 10.9 6 11.2V21.9C6 22.1 6.1 22.3 6.3 22.4L9 24C10.7 24.9 11.7 23.9 11.7 22.9V12.3C11.7 12.1 11.9 11.9 12.1 11.9H13.5C13.7 11.9 13.9 12.1 13.9 12.3V22.9C13.9 25.1 12.7 26.4 10.6 26.4C9.9 26.4 9.3 26.4 7.9 25.7L5.3 24.2C4.5 23.7 4 22.8 4 21.9V11.2C4 10.3 4.5 9.4 5.3 8.9L14.7 3.5C15.5 3 16.5 3 17.3 3.5L26.7 8.9C27.5 9.4 28 10.3 28 11.2V21.9C28 22.8 27.5 23.7 26.7 24.2L17.3 29.6C16.9 29.8 16.4 30 16 30Z" fill="#539E43"/>
  <path d="M18.8 22.7C14.4 22.7 13.4 20.6 13.4 18.8C13.4 18.6 13.6 18.4 13.8 18.4H15.2C15.4 18.4 15.6 18.5 15.6 18.7C15.9 20 16.5 20.6 18.8 20.6C20.6 20.6 21.5 20.2 21.5 19.1C21.5 18.4 21.2 17.9 18.2 17.5C15.7 17.2 14.1 16.5 14.1 14.2C14.1 12.1 15.9 10.8 18.5 10.8C21.4 10.8 23.1 12 23.4 14.4C23.4 14.5 23.4 14.6 23.3 14.7C23.2 14.8 23.1 14.8 23 14.8H21.6C21.4 14.8 21.2 14.7 21.2 14.5C20.8 13.3 20 12.9 18.5 12.9C16.8 12.9 16.4 13.6 16.4 14.2C16.4 14.9 16.9 15.2 19.7 15.5C22.5 15.8 23.8 16.5 23.8 18.7C23.8 21 21.9 22.7 18.8 22.7Z" fill="#539E43"/>
</svg> 