<?xml version="1.0" encoding="UTF-8"?>
<svg width="256px" height="256px" viewBox="0 0 256 256" version="1.1" xmlns="http://www.w3.org/2000/svg" preserveAspectRatio="xMidYMid">
    <g>
        <path d="M210.483381,73.8236374 C207.827698,72.9095503 205.075867,72.0446761 202.24247,71.2267368 C202.708172,69.3261098 203.135596,67.4500894 203.515631,65.6059664 C209.753843,35.3248922 205.675082,10.9302478 191.747328,2.89849283 C178.392359,-4.80289661 156.551327,3.22703567 134.492936,22.4237776 C132.371761,24.2697233 130.244662,26.2241201 128.118477,28.2723861 C126.701777,26.917204 125.287358,25.6075897 123.876584,24.3549348 C100.758745,3.82852863 77.5866802,-4.82157937 63.6725966,3.23341515 C50.3303869,10.9571328 46.3792156,33.8904224 51.9945178,62.5880206 C52.5367729,65.3599011 53.1706189,68.1905639 53.8873982,71.068617 C50.6078941,71.9995641 47.4418534,72.9920277 44.4125156,74.0478303 C17.3093297,83.497195 0,98.3066828 0,113.667995 C0,129.533287 18.5815786,145.446423 46.8116526,155.095373 C49.0394553,155.856809 51.3511025,156.576778 53.7333796,157.260293 C52.9600965,160.37302 52.2875179,163.423318 51.7229345,166.398431 C46.3687351,194.597975 50.5500231,216.989464 63.8566899,224.664425 C77.6012619,232.590464 100.66852,224.443422 123.130185,204.809231 C124.905501,203.257196 126.687196,201.611293 128.472081,199.886102 C130.785552,202.113904 133.095375,204.222319 135.392897,206.199955 C157.14963,224.922338 178.637969,232.482469 191.932332,224.786092 C205.663234,216.837268 210.125675,192.78347 204.332202,163.5181 C203.88974,161.283006 203.374826,158.99961 202.796573,156.675661 C204.416503,156.196743 206.006814,155.702335 207.557482,155.188332 C236.905331,145.46465 256,129.745175 256,113.667995 C256,98.2510906 238.132466,83.3418093 210.483381,73.8236374 Z" fill="#00D8FF"></path>
        <path d="M201.345395,142.849369 C199.916404,143.311582 198.447939,143.759022 196.944674,144.192287 C194.555726,134.926127 190.993372,124.894243 186.42067,114.384219 C190.74087,104.143965 194.153363,94.2819466 196.448775,85.1724527 C199.122777,85.9515894 201.706105,86.7816526 204.175953,87.6634833 C227.878067,95.5335862 242.139685,107.440674 242.139685,113.667995 C242.139685,120.298667 226.796069,132.980487 201.345395,142.849369 Z M190.985329,161.234045 C193.104778,174.786813 192.806097,186.632182 190.138385,194.646501 C187.735892,201.824766 183.727598,205.956674 179.026106,207.77091 C169.194133,211.601037 150.293244,204.908903 130.368425,187.863507 C128.221528,186.026613 126.072339,184.0645 123.930862,181.987135 C131.216397,174.091361 138.502032,164.65505 145.557194,154.015428 C156.999342,153.273794 167.702009,152.023328 177.286824,150.280466 C177.80807,152.433668 178.277815,154.545676 178.685266,156.610744 C179.767342,161.699244 190.985329,161.234045 190.985329,161.234045 Z M64.8549003,207.438 C55.2039727,211.144877 47.6026136,211.223841 42.8934731,209.427548 C33.0469844,205.557475 29.0729421,186.448116 33.7147205,161.877779 C34.2310192,159.11838 34.8359645,156.306063 35.5266992,153.456537 C44.9677542,155.095373 55.5333862,156.255947 67.0071275,156.939444 C74.1308246,167.357378 81.6486704,176.714694 89.2332313,184.517607 C87.5555962,186.136606 85.8755063,187.685672 84.1951925,189.15166 C77.3077949,195.21158 70.7618186,203.224841 64.8549003,207.438 Z M13.8602091,113.667995 C13.8602091,106.982347 27.3497337,94.7296874 50.2009077,86.9932997 C52.9460657,85.9986214 55.8456775,85.0659981 58.8663423,84.1873015 C61.1996796,93.4419731 64.5937357,103.301842 68.8579441,113.450785 C64.5530668,123.727807 61.1121172,133.718095 58.7497116,143.065924 C56.2683711,142.359547 53.8610334,141.603729 51.5474487,140.800044 C27.5935414,132.883777 13.8602091,120.609333 13.8602091,113.667995 Z M65.2307138,66.5390611 C60.4155017,41.4171568 64.2093264,21.8602041 73.9771054,18.0268886 C84.4344721,13.9333393 105.786331,21.7871838 127.543143,41.1339613 C128.846509,42.2910321 130.149876,43.4926173 131.453242,44.7387169 C123.917069,52.5015928 116.447584,61.7020912 109.316624,71.9322551 C98.1635089,72.7641022 87.4835829,74.1417545 77.6491114,75.9911124 C76.8685333,72.8746583 76.1941914,69.8405538 75.6300737,66.9041647 C72.1909717,66.7859346 65.2307138,66.5390611 65.2307138,66.5390611 Z M152.969037,90.8875698 C150.007526,85.8533666 146.960391,80.9590754 143.842467,76.2176134 C150.693387,76.9781557 157.220094,77.9401024 163.32991,79.0847476 C161.584105,85.5035511 159.368381,92.2232481 156.737931,99.1134969 C155.519492,96.3496137 154.25949,93.6022257 152.969037,90.8875698 Z M128.104112,50.9449392 C132.461436,55.7040593 136.831194,60.9471574 141.159472,66.6025507 C136.794649,66.4501371 132.345649,66.3715425 127.832371,66.3715425 C123.361474,66.3715425 118.933421,66.4458371 114.567084,66.5900507 C118.891611,60.9901818 123.485745,55.7553838 128.104112,50.9449392 Z M102.983653,90.9533703 C101.723254,93.6194258 100.513301,96.3111012 99.3547491,99.0241024 C96.7675087,92.1726236 94.5955012,85.4357507 92.8703755,78.9913992 C98.9235254,77.8853541 105.391333,76.9577556 112.163566,76.2262134 C108.997804,81.0241047 105.906843,85.9399666 102.983653,90.9533703 Z M112.379421,152.940292 C105.435452,152.261795 98.8533766,151.373399 92.7271212,150.280466 C94.4857498,143.721929 96.7171842,136.84682 99.3547491,129.855888 C100.513301,132.567889 101.723254,135.259565 102.983653,137.92562 C105.972101,143.048422 109.147862,148.059284 112.379421,152.940292 Z M128.297002,177.934848 C123.818619,173.053839 119.366208,167.697378 114.993825,161.942422 C119.275208,162.057422 123.66037,162.115422 128.146112,162.115422 C132.73391,162.115422 137.251708,162.038422 141.697119,161.889422 C137.297711,167.761378 132.802619,173.135839 128.297002,177.934848 Z M156.86772,129.533287 C159.613525,136.664819 161.919937,143.622965 163.702632,150.237466 C157.478815,151.397041 150.815933,152.34082 143.842467,153.062377 C146.960391,148.272915 150.007526,143.322624 152.969037,138.23042 C154.313491,135.424421 155.614858,132.596422 156.86772,129.733287 Z M142.325157,156.939444 C134.148359,157.628941 125.855862,158.073381 117.547665,158.272381 C109.239469,158.073381 101.032972,157.628941 93.0005741,156.982444 C84.9681762,156.335947 77.1645406,155.432002 69.7032383,154.313427 C66.2641363,154.195427 62.8250343,154.013427 59.4716722,153.767427 C61.7424749,147.820135 64.3297153,141.700043 67.2243057,135.451152 C70.1188961,129.202261 73.2797198,123.039571 76.7188218,116.963081 C80.1579238,110.886591 83.8113258,104.9243 87.6504277,99.0905009 C91.4895297,93.2567017 95.4572316,87.6514025 99.5535335,82.2746033 C107.730332,82.0286033 115.90713,81.9500033 124.083928,82.0286033 C132.260726,81.9500033 140.351924,82.0286033 148.271522,82.2746033 C152.281224,87.6514025 156.205326,93.2567017 160.044428,99.0905009 C163.88353,104.9243 167.536932,110.886591 171.019434,116.963081 C174.501936,123.039571 177.77076,129.202261 180.75275,135.451152 C183.73474,141.700043 186.408981,147.820135 188.765383,153.767427 C185.240681,154.013427 181.758179,154.195427 178.318877,154.313427 C170.857575,155.432002 163.053939,156.335947 154.978141,156.982444 C146.902343,157.628941 142.325157,156.939444 142.325157,156.939444 Z M179.026106,17.8838886 C189.457773,21.7871838 193.338597,42.9729744 187.992891,70.0316281 C187.650456,71.7063702 187.26552,73.4197124 186.838097,75.1716545 C176.960125,73.2924275 166.280199,71.8933752 155.084141,71.0615281 C147.910343,60.7440574 140.437858,51.5054351 132.901685,43.7428592 C134.915885,41.8078322 136.930084,39.9657052 138.944284,38.2164782 C157.702124,21.5411838 177.01391,14.0515694 179.026106,17.8838886 Z" fill="#00D8FF"></path>
    </g>
</svg> 