<svg width="32" height="32" viewBox="0 0 32 32" fill="none" xmlns="http://www.w3.org/2000/svg">
  <path d="M16 18.5C17.3807 18.5 18.5 17.3807 18.5 16C18.5 14.6193 17.3807 13.5 16 13.5C14.6193 13.5 13.5 14.6193 13.5 16C13.5 17.3807 14.6193 18.5 16 18.5Z" fill="#61DAFB"/>
  <path d="M16 20.5C23.1797 20.5 29 18.4853 29 16C29 13.5147 23.1797 11.5 16 11.5C8.82031 11.5 3 13.5147 3 16C3 18.4853 8.82031 20.5 16 20.5Z" stroke="#61DAFB" stroke-width="2"/>
  <path d="M11.5 18.25C15.0899 24.1234 19.4221 28 21.5 28C23.5779 28 24.0899 23.1234 20.5 17.25C16.9101 11.3766 12.5779 7.5 10.5 7.5C8.42205 7.5 7.91013 12.3766 11.5 18.25Z" stroke="#61DAFB" stroke-width="2"/>
  <path d="M20.5 18.25C24.0899 12.3766 24.5779 7.5 22.5 7.5C20.4221 7.5 16.0899 11.3766 12.5 17.25C8.91013 23.1234 8.42205 28 10.5 28C12.5779 28 16.9101 24.1234 20.5 18.25Z" stroke="#61DAFB" stroke-width="2"/>
</svg> 