<?xml version="1.0" encoding="UTF-8"?>
<svg width="256px" height="286px" viewBox="0 0 256 286" version="1.1" xmlns="http://www.w3.org/2000/svg" xmlns:xlink="http://www.w3.org/1999/xlink" preserveAspectRatio="xMidYMid">
    <g>
        <path d="M145.726088,43.3265854 L145.726088,0 L254.276856,62.6153846 L254.276856,106.424786 L145.726088,43.3265854 Z M145.726088,151.241453 L145.726088,194.568038 L254.276856,257.183424 L254.276856,213.374872 L145.726088,151.241453 Z M0,106.424786 L0,62.6153846 L108.550769,0 L108.550769,43.3265854 L0,106.424786 Z" fill="#E55B2D"></path>
        <path d="M108.550769,151.241453 L0,213.374872 L0,257.183424 L108.550769,194.568038 L108.550769,151.241453 Z M127.138428,123.287356 L127.138428,166.614034 L145.726088,177.766132 L145.726088,134.439547 L127.138428,123.287356 Z M127.138428,72.2504274 L127.138428,115.577009 L145.726088,126.729107 L145.726088,83.4024274 L127.138428,72.2504274 Z" fill="#ED8E24"></path>
        <path d="M108.550769,49.8844444 L108.550769,93.2110256 L127.138428,104.363111 L127.138428,61.0365299 L108.550769,49.8844444 Z M108.550769,151.241453 L108.550769,194.568038 L127.138428,205.720137 L127.138428,162.393547 L108.550769,151.241453 Z" fill="#F8BF3C"></path>
    </g>
</svg> 