<?xml version="1.0" encoding="UTF-8"?>
<svg width="256px" height="287px" viewBox="0 0 256 287" version="1.1" xmlns="http://www.w3.org/2000/svg" preserveAspectRatio="xMidYMid">
    <g>
        <path d="M127.270996,0.172307692 L0.172307692,72.8984615 L0.172307692,218.350769 L127.270996,291.077231 L254.369684,218.350769 L254.369684,72.8984615 L127.270996,0.172307692 Z" fill="#E55B2D"></path>
        <path d="M127.270996,0.172307692 L0.172307692,72.8984615 L0.172307692,218.350769 L127.270996,291.077231 L254.369684,218.350769 L254.369684,72.8984615 L127.270996,0.172307692 Z M127.270996,38.4861538 L211.569684,83.8830769 L211.569684,207.366154 L127.270996,252.763077 L42.9723077,207.366154 L42.9723077,83.8830769 L127.270996,38.4861538 Z" fill="#ED8E24"></path>
        <path d="M127.270996,80.1969231 L89.1015385,102.224 L89.1015385,146.278154 L127.270996,168.305231 L165.440454,146.278154 L165.440454,102.224 L127.270996,80.1969231 Z" fill="#F8BF3C"></path>
        <path d="M127.270996,0.172307692 L0.172307692,72.8984615 L0.172307692,218.350769 L127.270996,291.077231 L254.369684,218.350769 L254.369684,72.8984615 L127.270996,0.172307692 Z M127.270996,38.4861538 L211.569684,83.8830769 L211.569684,207.366154 L127.270996,252.763077 L42.9723077,207.366154 L42.9723077,83.8830769 L127.270996,38.4861538 Z" fill="#ED8E24"></path>
        <path d="M127.270996,80.1969231 L89.1015385,102.224 L89.1015385,146.278154 L127.270996,168.305231 L165.440454,146.278154 L165.440454,102.224 L127.270996,80.1969231 Z" fill="#F8BF3C"></path>
        <path d="M127.270996,168.305231 L89.1015385,146.278154 L89.1015385,190.332308 L127.270996,212.359385 L165.440454,190.332308 L165.440454,146.278154 L127.270996,168.305231 Z" fill="#E55B2D"></path>
    </g>
</svg> 