<?xml version="1.0" encoding="UTF-8"?>
<svg width="40" height="40" viewBox="0 0 40 40" fill="none" xmlns="http://www.w3.org/2000/svg">
  <!-- 定义渐变 -->
  <defs>
    <linearGradient id="bgGradient" x1="0" y1="0" x2="40" y2="40" gradientUnits="userSpaceOnUse">
      <stop offset="0%" stop-color="#4CAF50"/>
      <stop offset="100%" stop-color="#388E3C"/>
    </linearGradient>
    <linearGradient id="shapeGradient" x1="12" y1="12" x2="28" y2="28" gradientUnits="userSpaceOnUse">
      <stop offset="0%" stop-color="white"/>
      <stop offset="100%" stop-color="#E8F5E9"/>
    </linearGradient>
  </defs>

  <!-- 背景 -->
  <rect width="40" height="40" rx="12" fill="url(#bgGradient)"/>
  
  <!-- 主要图形：抽象的 S 和 R -->
  <path d="
    M 14 14
    C 14 14, 20 14, 24 14
    C 28 14, 28 17, 28 19
    C 28 21, 26 22, 24 22
    C 22 22, 18 22, 16 22
    C 14 22, 12 23, 12 25
    C 12 27, 14 28, 16 28
    C 18 28, 26 28, 26 28
    " 
    stroke="url(#shapeGradient)" 
    stroke-width="3" 
    stroke-linecap="round"
    fill="none"
  />

  <!-- 点缀装饰：代表数字化和科技感 -->
  <circle cx="26" cy="16" r="1" fill="white" opacity="0.8"/>
  <circle cx="14" cy="26" r="1" fill="white" opacity="0.8"/>
</svg> 